<?xml version="1.0" encoding="UTF-8" standalone="no"?><!DOCTYPE svg PUBLIC "-//W3C//DTD SVG 1.1//EN" "http://www.w3.org/Graphics/SVG/1.1/DTD/svg11.dtd"><svg width="100%" height="100%" viewBox="0 0 490 490" version="1.1" xmlns="http://www.w3.org/2000/svg" xmlns:xlink="http://www.w3.org/1999/xlink" xml:space="preserve" xmlns:serif="http://www.serif.com/" style="fill-rule:evenodd;clip-rule:evenodd;"><g><circle cx="244.829" cy="244.829" r="32.226"/><path d="M485.313,237.318c-23.974,-41.44 -58.446,-76.197 -99.691,-100.511c-42.473,-25.038 -91.117,-38.28 -140.681,-38.3c-0.037,0 -0.074,-0.001 -0.112,-0.001c-0.038,0 -0.074,0.001 -0.112,0.001c-49.564,0.02 -98.208,13.262 -140.681,38.3c-41.245,24.314 -75.718,59.07 -99.691,100.511l-4.345,7.511l4.345,7.511c23.974,41.44 58.446,76.197 99.691,100.511c42.473,25.038 91.117,38.28 140.681,38.3c0.037,0 0.074,0.001 0.112,0.001c0.038,0 0.074,-0.001 0.112,-0.001c49.564,-0.02 98.208,-13.262 140.681,-38.3c41.245,-24.314 75.718,-59.07 99.691,-100.511l4.345,-7.511l-4.345,-7.511Zm-124.161,7.511c0,64.105 -52.125,116.264 -116.217,116.322c-0.036,0 -0.071,0.001 -0.107,0.001c-0.036,0 -0.071,-0.001 -0.107,-0.001c-64.092,-0.058 -116.217,-52.217 -116.217,-116.322c0,-64.105 52.125,-116.264 116.217,-116.322c0.036,0 0.071,-0.001 0.107,-0.001c0.036,0 0.071,0.001 0.107,0.001c64.092,0.058 116.217,52.217 116.217,116.322Zm-326.313,0c22.94,-36.587 54.809,-66.03 91.791,-86.144c-17.673,24.184 -28.124,53.964 -28.124,86.144c0,32.18 10.45,61.96 28.124,86.144c-36.982,-20.114 -68.851,-49.557 -91.791,-86.144Zm328.19,86.144c17.673,-24.184 28.124,-53.964 28.124,-86.144c0,-32.18 -10.45,-61.96 -28.124,-86.144c36.981,20.114 68.85,49.557 91.791,86.144c-22.941,36.587 -54.81,66.03 -91.791,86.144Z" style="fill-rule:nonzero;"/><clipPath id="_clip1"><rect id="Mangekyou_Sharingan_Kakashi" x="119.66" y="119.66" width="250.337" height="250.337"/></clipPath><g clip-path="url(#_clip1)"><circle id="iris" cx="244.829" cy="244.829" r="120.996" style="fill:url(#_Radial2);stroke:#000;stroke-width:8.34px;"/><g id="tomoe-1" serif:id="tomoe 1"><path id="tomoe-1a" serif:id="tomoe 1a" d="M209.365,244.829c2.086,-41.723 18.775,-108.479 35.464,-125.169c16.689,16.69 33.378,83.446 35.464,125.169c-20.444,0 -50.484,0 -70.928,0Z" style="fill-rule:nonzero;"/><path id="tomoe-1b" serif:id="tomoe 1b" d="M328.442,270.864c9.679,-32.711 0.166,-112.151 -77.438,-142.859c-2.086,18.108 3.087,34.463 17.857,47.814c31.543,7.26 66.34,42.808 54.908,90.038c-16.439,15.021 -1.92,23.449 4.673,5.007Z" style="fill-rule:nonzero;"/></g><g id="tomoe-2" serif:id="tomoe 2"><path id="tomoe-1a1" serif:id="tomoe 1a" d="M262.561,214.116c35.09,22.668 84.558,70.499 90.667,93.297c-22.798,6.109 -88.955,-12.816 -126.131,-31.871c10.222,-17.705 25.242,-43.721 35.464,-61.426Z" style="fill-rule:nonzero;"/><path id="tomoe-1b1" serif:id="tomoe 1b" d="M180.476,304.222c23.488,24.738 97.042,56.22 162.438,4.367c-14.639,-10.861 -31.39,-14.558 -50.337,-8.443c-22.059,23.687 -70.242,36.048 -105.429,2.533c-4.788,-21.747 -19.347,-13.387 -6.672,1.543Z" style="fill-rule:nonzero;"/></g><g id="tomoe-3" serif:id="tomoe 3"><path id="tomoe-1a2" serif:id="tomoe 1a" d="M262.561,275.542c-37.176,19.055 -103.333,37.98 -126.131,31.871c6.109,-22.798 55.577,-70.629 90.667,-93.297c10.222,17.705 25.242,43.721 35.464,61.426Z" style="fill-rule:nonzero;"/><path id="tomoe-1b2" serif:id="tomoe 1b" d="M225.57,159.401c-33.168,7.972 -97.209,55.931 -85.001,138.492c16.725,-7.247 28.302,-19.905 32.48,-39.372c-9.484,-30.946 3.903,-78.855 50.521,-92.57c21.228,6.726 21.267,-10.062 2,-6.55Z" style="fill-rule:nonzero;"/></g><circle id="center" cx="244.829" cy="244.829" r="23.365" style="fill:#a00000;"/></g></g><defs><radialGradient id="_Radial2" cx="0" cy="0" r="1" gradientUnits="userSpaceOnUse" gradientTransform="matrix(241.992,0,0,241.992,244.829,244.829)"><stop offset="0" style="stop-color:#600;stop-opacity:1"/><stop offset="0.5" style="stop-color:#c30000;stop-opacity:1"/><stop offset="1" style="stop-color:#a00000;stop-opacity:1"/></radialGradient></defs></svg>