<?xml version="1.0" encoding="UTF-8" standalone="no"?><!DOCTYPE svg PUBLIC "-//W3C//DTD SVG 1.1//EN" "http://www.w3.org/Graphics/SVG/1.1/DTD/svg11.dtd"><svg width="100%" height="100%" viewBox="0 0 490 490" version="1.1" xmlns="http://www.w3.org/2000/svg" xmlns:xlink="http://www.w3.org/1999/xlink" xml:space="preserve" xmlns:serif="http://www.serif.com/" style="fill-rule:evenodd;clip-rule:evenodd;stroke-linejoin:round;stroke-miterlimit:1.41421;"><g><circle cx="244.829" cy="244.829" r="123.832" style="fill:#131313;"/><path d="M485.313,237.318c-23.974,-41.44 -58.446,-76.197 -99.691,-100.511c-42.473,-25.038 -91.117,-38.28 -140.681,-38.3c-0.037,0 -0.074,-0.001 -0.112,-0.001c-0.038,0 -0.074,0.001 -0.112,0.001c-49.564,0.02 -98.208,13.262 -140.681,38.3c-41.245,24.314 -75.718,59.07 -99.691,100.511l-4.345,7.511l4.345,7.511c23.974,41.44 58.446,76.197 99.691,100.511c42.473,25.038 91.117,38.28 140.681,38.3c0.037,0 0.074,0.001 0.112,0.001c0.038,0 0.074,-0.001 0.112,-0.001c49.564,-0.02 98.208,-13.262 140.681,-38.3c41.245,-24.314 75.718,-59.07 99.691,-100.511l4.345,-7.511l-4.345,-7.511Zm-124.161,7.511c0,64.105 -52.125,116.264 -116.217,116.322c-0.036,0 -0.071,0.001 -0.107,0.001c-0.036,0 -0.071,-0.001 -0.107,-0.001c-64.092,-0.058 -116.217,-52.217 -116.217,-116.322c0,-64.105 52.125,-116.264 116.217,-116.322c0.036,0 0.071,-0.001 0.107,-0.001c0.036,0 0.071,0.001 0.107,0.001c64.092,0.058 116.217,52.217 116.217,116.322Zm-326.313,0c22.94,-36.587 54.809,-66.03 91.791,-86.144c-17.673,24.184 -28.124,53.964 -28.124,86.144c0,32.18 10.45,61.96 28.124,86.144c-36.982,-20.114 -68.851,-49.557 -91.791,-86.144Zm328.19,86.144c17.673,-24.184 28.124,-53.964 28.124,-86.144c0,-32.18 -10.45,-61.96 -28.124,-86.144c36.981,20.114 68.85,49.557 91.791,86.144c-22.941,36.587 -54.81,66.03 -91.791,86.144Z" style="fill-rule:nonzero;"/></g></svg>