<?xml version="1.0" encoding="UTF-8" standalone="no"?><!DOCTYPE svg PUBLIC "-//W3C//DTD SVG 1.1//EN" "http://www.w3.org/Graphics/SVG/1.1/DTD/svg11.dtd"><svg width="100%" height="100%" viewBox="0 0 490 490" version="1.1" xmlns="http://www.w3.org/2000/svg" xmlns:xlink="http://www.w3.org/1999/xlink" xml:space="preserve" xmlns:serif="http://www.serif.com/" style="fill-rule:evenodd;clip-rule:evenodd;"><g><circle cx="244.829" cy="244.829" r="32.226"/><path d="M485.313,237.318c-23.974,-41.44 -58.446,-76.197 -99.691,-100.511c-42.473,-25.038 -91.117,-38.28 -140.681,-38.3c-0.037,0 -0.074,-0.001 -0.112,-0.001c-0.038,0 -0.074,0.001 -0.112,0.001c-49.564,0.02 -98.208,13.262 -140.681,38.3c-41.245,24.314 -75.718,59.07 -99.691,100.511l-4.345,7.511l4.345,7.511c23.974,41.44 58.446,76.197 99.691,100.511c42.473,25.038 91.117,38.28 140.681,38.3c0.037,0 0.074,0.001 0.112,0.001c0.038,0 0.074,-0.001 0.112,-0.001c49.564,-0.02 98.208,-13.262 140.681,-38.3c41.245,-24.314 75.718,-59.07 99.691,-100.511l4.345,-7.511l-4.345,-7.511Zm-124.161,7.511c0,64.105 -52.125,116.264 -116.217,116.322c-0.036,0 -0.071,0.001 -0.107,0.001c-0.036,0 -0.071,-0.001 -0.107,-0.001c-64.092,-0.058 -116.217,-52.217 -116.217,-116.322c0,-64.105 52.125,-116.264 116.217,-116.322c0.036,0 0.071,-0.001 0.107,-0.001c0.036,0 0.071,0.001 0.107,0.001c64.092,0.058 116.217,52.217 116.217,116.322Zm-326.313,0c22.94,-36.587 54.809,-66.03 91.791,-86.144c-17.673,24.184 -28.124,53.964 -28.124,86.144c0,32.18 10.45,61.96 28.124,86.144c-36.982,-20.114 -68.851,-49.557 -91.791,-86.144Zm328.19,86.144c17.673,-24.184 28.124,-53.964 28.124,-86.144c0,-32.18 -10.45,-61.96 -28.124,-86.144c36.981,20.114 68.85,49.557 91.791,86.144c-22.941,36.587 -54.81,66.03 -91.791,86.144Z" style="fill-rule:nonzero;"/><g id="sharingan"><circle id="iris" cx="244.829" cy="244.829" r="119.452" style="fill:url(#_Radial1);stroke:#000;stroke-width:8.24px;"/><circle id="center" cx="244.829" cy="244.829" r="20.595"/></g><g><path id="circle" d="M195.494,189.119c30.553,-27.222 77.459,-24.517 104.68,6.037c27.221,30.553 24.516,77.458 -6.037,104.679c-30.553,27.221 -77.459,24.516 -104.68,-6.037c-27.221,-30.553 -24.516,-77.458 6.037,-104.679Z" style="fill:none;stroke:#000;stroke-opacity:0.298039;stroke-width:3.3px;"/><g id="tomoe-2" serif:id="tomoe 2"><path id="tomoe-1a" serif:id="tomoe 1a" d="M208.885,179.381c6.049,6.789 5.448,17.212 -1.342,23.262c-6.789,6.049 -17.213,5.448 -23.262,-1.342c-6.049,-6.789 -5.448,-17.213 1.342,-23.262c6.789,-6.049 17.213,-5.448 23.262,1.342Z"/><path id="tomoe-1b" serif:id="tomoe 1b" d="M184.281,201.301l10.189,-9.74c-8.494,-9.534 -17.562,-18.226 -10.193,-35.714c-11.99,14.654 -14.902,28.724 0.004,45.454Z" style="fill-rule:nonzero;"/></g><g id="tomoe-21" serif:id="tomoe 2"><path id="tomoe-1a1" serif:id="tomoe 1a" d="M315.13,248.173c-8.976,-1.457 -15.08,-9.928 -13.623,-18.904c1.458,-8.976 9.928,-15.08 18.904,-13.623c8.976,1.458 15.08,9.928 13.623,18.904c-1.457,8.976 -9.928,15.08 -18.904,13.623Z"/><path id="tomoe-1b1" serif:id="tomoe 1b" d="M320.411,215.646l-1.77,13.985c12.604,2.046 25.123,3.077 30.427,21.298c0.07,-18.934 -6.539,-31.692 -28.657,-35.283Z" style="fill-rule:nonzero;"/></g><g id="tomoe-22" serif:id="tomoe 2"><path id="tomoe-1a2" serif:id="tomoe 1a" d="M216.949,313.406c1.458,-8.976 9.928,-15.08 18.904,-13.623c8.976,1.457 15.08,9.928 13.623,18.904c-1.458,8.976 -9.928,15.08 -18.904,13.623c-8.976,-1.458 -15.08,-9.928 -13.623,-18.904Z"/><path id="tomoe-1b2" serif:id="tomoe 1b" d="M249.476,318.687l-13.985,-1.77c-2.046,12.604 -3.077,25.123 -21.297,30.427c18.934,0.069 31.691,-6.539 35.282,-28.657Z" style="fill-rule:nonzero;"/></g></g></g><defs><radialGradient id="_Radial1" cx="0" cy="0" r="1" gradientUnits="userSpaceOnUse" gradientTransform="matrix(238.904,0,0,238.904,244.829,244.829)"><stop offset="0" style="stop-color:#600;stop-opacity:1"/><stop offset="0.6" style="stop-color:#c30000;stop-opacity:1"/><stop offset="1" style="stop-color:#a00000;stop-opacity:1"/></radialGradient></defs></svg>