<?xml version="1.0" encoding="UTF-8" standalone="no"?><!DOCTYPE svg PUBLIC "-//W3C//DTD SVG 1.1//EN" "http://www.w3.org/Graphics/SVG/1.1/DTD/svg11.dtd"><svg width="100%" height="100%" viewBox="0 0 490 490" version="1.1" xmlns="http://www.w3.org/2000/svg" xmlns:xlink="http://www.w3.org/1999/xlink" xml:space="preserve" xmlns:serif="http://www.serif.com/" style="fill-rule:evenodd;clip-rule:evenodd;"><g><circle cx="244.829" cy="244.829" r="32.226"/><path d="M485.313,237.318c-23.974,-41.44 -58.446,-76.197 -99.691,-100.511c-42.473,-25.038 -91.117,-38.28 -140.681,-38.3c-0.037,0 -0.074,-0.001 -0.112,-0.001c-0.038,0 -0.074,0.001 -0.112,0.001c-49.564,0.02 -98.208,13.262 -140.681,38.3c-41.245,24.314 -75.718,59.07 -99.691,100.511l-4.345,7.511l4.345,7.511c23.974,41.44 58.446,76.197 99.691,100.511c42.473,25.038 91.117,38.28 140.681,38.3c0.037,0 0.074,0.001 0.112,0.001c0.038,0 0.074,-0.001 0.112,-0.001c49.564,-0.02 98.208,-13.262 140.681,-38.3c41.245,-24.314 75.718,-59.07 99.691,-100.511l4.345,-7.511l-4.345,-7.511Zm-124.161,7.511c0,64.105 -52.125,116.264 -116.217,116.322c-0.036,0 -0.071,0.001 -0.107,0.001c-0.036,0 -0.071,-0.001 -0.107,-0.001c-64.092,-0.058 -116.217,-52.217 -116.217,-116.322c0,-64.105 52.125,-116.264 116.217,-116.322c0.036,0 0.071,-0.001 0.107,-0.001c0.036,0 0.071,0.001 0.107,0.001c64.092,0.058 116.217,52.217 116.217,116.322Zm-326.313,0c22.94,-36.587 54.809,-66.03 91.791,-86.144c-17.673,24.184 -28.124,53.964 -28.124,86.144c0,32.18 10.45,61.96 28.124,86.144c-36.982,-20.114 -68.851,-49.557 -91.791,-86.144Zm328.19,86.144c17.673,-24.184 28.124,-53.964 28.124,-86.144c0,-32.18 -10.45,-61.96 -28.124,-86.144c36.981,20.114 68.85,49.557 91.791,86.144c-22.941,36.587 -54.81,66.03 -91.791,86.144Z" style="fill-rule:nonzero;"/><g id="sharingan"><circle id="iris" cx="244.829" cy="244.829" r="119.452" style="fill:url(#_Radial1);stroke:#000;stroke-width:8.24px;"/><circle id="center" cx="244.829" cy="244.829" r="20.595"/></g><g><circle id="circle" cx="244.829" cy="244.829" r="74.143" style="fill:none;stroke:#000;stroke-opacity:0.298039;stroke-width:3.3px;"/><g id="tomoe-2" serif:id="tomoe 2"><path id="tomoe-1a" serif:id="tomoe 1a" d="M261.305,172.323c0,9.094 -7.383,16.476 -16.476,16.476c-9.093,0 -16.476,-7.382 -16.476,-16.476c0,-9.093 7.383,-16.476 16.476,-16.476c9.093,0 16.476,7.383 16.476,16.476Z"/><path id="tomoe-1b" serif:id="tomoe 1b" d="M228.353,172.323l14.087,-0.494c0,-12.769 -0.989,-25.291 16.147,-33.447c-18.701,2.966 -30.234,11.534 -30.234,33.941Z" style="fill-rule:nonzero;"/></g><g id="tomoe-21" serif:id="tomoe 2"><path id="tomoe-1a1" serif:id="tomoe 1a" d="M294.871,294.364c-5.733,-7.059 -4.656,-17.444 2.403,-23.177c7.059,-5.732 17.444,-4.655 23.177,2.404c5.732,7.059 4.655,17.444 -2.404,23.176c-7.059,5.733 -17.444,4.656 -23.176,-2.403Z"/><path id="tomoe-1b1" serif:id="tomoe 1b" d="M320.451,273.591l-10.624,9.264c8.049,9.912 16.71,19.009 8.55,36.142c12.647,-14.09 16.199,-28.012 2.074,-45.406Z" style="fill-rule:nonzero;"/></g><g id="tomoe-22" serif:id="tomoe 2"><path id="tomoe-1a2" serif:id="tomoe 1a" d="M178.17,277.758c7.059,-5.733 17.444,-4.656 23.176,2.403c5.733,7.059 4.656,17.444 -2.404,23.177c-7.059,5.732 -17.444,4.655 -23.176,-2.404c-5.732,-7.059 -4.655,-17.444 2.404,-23.176Z"/><path id="tomoe-1b2" serif:id="tomoe 1b" d="M198.942,303.338l-9.264,-10.624c-9.912,8.049 -19.009,16.71 -36.142,8.55c14.091,12.647 28.012,16.199 45.406,2.074Z" style="fill-rule:nonzero;"/></g></g></g><defs><radialGradient id="_Radial1" cx="0" cy="0" r="1" gradientUnits="userSpaceOnUse" gradientTransform="matrix(238.904,0,0,238.904,244.829,244.829)"><stop offset="0" style="stop-color:#600;stop-opacity:1"/><stop offset="0.6" style="stop-color:#c30000;stop-opacity:1"/><stop offset="1" style="stop-color:#a00000;stop-opacity:1"/></radialGradient></defs></svg>