<?xml version="1.0" encoding="UTF-8" standalone="no"?><!DOCTYPE svg PUBLIC "-//W3C//DTD SVG 1.1//EN" "http://www.w3.org/Graphics/SVG/1.1/DTD/svg11.dtd"><svg width="100%" height="100%" viewBox="0 0 490 490" version="1.1" xmlns="http://www.w3.org/2000/svg" xmlns:xlink="http://www.w3.org/1999/xlink" xml:space="preserve" xmlns:serif="http://www.serif.com/" style="fill-rule:evenodd;clip-rule:evenodd;"><g><circle cx="244.829" cy="244.829" r="32.226"/><path d="M485.313,237.318c-23.974,-41.44 -58.446,-76.197 -99.691,-100.511c-42.473,-25.038 -91.117,-38.28 -140.681,-38.3c-0.037,0 -0.074,-0.001 -0.112,-0.001c-0.038,0 -0.074,0.001 -0.112,0.001c-49.564,0.02 -98.208,13.262 -140.681,38.3c-41.245,24.314 -75.718,59.07 -99.691,100.511l-4.345,7.511l4.345,7.511c23.974,41.44 58.446,76.197 99.691,100.511c42.473,25.038 91.117,38.28 140.681,38.3c0.037,0 0.074,0.001 0.112,0.001c0.038,0 0.074,-0.001 0.112,-0.001c49.564,-0.02 98.208,-13.262 140.681,-38.3c41.245,-24.314 75.718,-59.07 99.691,-100.511l4.345,-7.511l-4.345,-7.511Zm-124.161,7.511c0,64.105 -52.125,116.264 -116.217,116.322c-0.036,0 -0.071,0.001 -0.107,0.001c-0.036,0 -0.071,-0.001 -0.107,-0.001c-64.092,-0.058 -116.217,-52.217 -116.217,-116.322c0,-64.105 52.125,-116.264 116.217,-116.322c0.036,0 0.071,-0.001 0.107,-0.001c0.036,0 0.071,0.001 0.107,0.001c64.092,0.058 116.217,52.217 116.217,116.322Zm-326.313,0c22.94,-36.587 54.809,-66.03 91.791,-86.144c-17.673,24.184 -28.124,53.964 -28.124,86.144c0,32.18 10.45,61.96 28.124,86.144c-36.982,-20.114 -68.851,-49.557 -91.791,-86.144Zm328.19,86.144c17.673,-24.184 28.124,-53.964 28.124,-86.144c0,-32.18 -10.45,-61.96 -28.124,-86.144c36.981,20.114 68.85,49.557 91.791,86.144c-22.941,36.587 -54.81,66.03 -91.791,86.144Z" style="fill-rule:nonzero;"/><g id="sharingan"><circle id="iris" cx="244.829" cy="244.829" r="119.452" style="fill:url(#_Radial1);stroke:#000;stroke-width:8.24px;"/><circle id="center" cx="244.829" cy="244.829" r="20.595"/></g><g><path id="circle" d="M170.985,243.188c0.683,-40.914 34.454,-73.578 75.369,-72.896c40.915,0.683 73.578,34.454 72.896,75.369c-0.682,40.915 -34.454,73.578 -75.369,72.896c-40.914,-0.682 -73.578,-34.454 -72.896,-75.369Z" style="fill:none;stroke:#000;stroke-opacity:0.298039;stroke-width:3.3px;"/><g id="tomoe-2" serif:id="tomoe 2"><path id="tomoe-1a" serif:id="tomoe 1a" d="M172.897,226.742c9.092,0.152 16.351,7.656 16.199,16.748c-0.152,9.093 -7.656,16.351 -16.749,16.2c-9.092,-0.152 -16.35,-7.657 -16.199,-16.749c0.152,-9.092 7.657,-16.351 16.749,-16.199Z"/><path id="tomoe-1b" serif:id="tomoe 1b" d="M172.347,259.69l-0.259,-14.094c-12.767,-0.213 -25.304,0.567 -33.173,-16.702c2.654,18.747 11.028,30.422 33.432,30.796Z" style="fill-rule:nonzero;"/></g><g id="tomoe-21" serif:id="tomoe 2"><path id="tomoe-1a1" serif:id="tomoe 1a" d="M295.48,195.216c-7.154,5.614 -17.519,4.364 -23.133,-2.79c-5.614,-7.153 -4.364,-17.519 2.789,-23.133c7.154,-5.614 17.52,-4.364 23.134,2.79c5.614,7.153 4.363,17.519 -2.79,23.133Z"/><path id="tomoe-1b1" serif:id="tomoe 1b" d="M275.136,169.293l9.086,10.777c10.045,-7.883 19.286,-16.391 36.28,-7.946c-13.878,-12.881 -27.738,-16.664 -45.366,-2.831Z" style="fill-rule:nonzero;"/></g><g id="tomoe-22" serif:id="tomoe 2"><path id="tomoe-1a2" serif:id="tomoe 1a" d="M276.93,311.624c-5.614,-7.154 -4.364,-17.519 2.79,-23.133c7.153,-5.614 17.519,-4.364 23.133,2.79c5.614,7.153 4.364,17.519 -2.79,23.133c-7.153,5.614 -17.519,4.364 -23.133,-2.79Z"/><path id="tomoe-1b2" serif:id="tomoe 1b" d="M302.853,291.281l-10.777,9.085c7.883,10.045 16.391,19.286 7.946,36.28c12.881,-13.878 16.665,-27.738 2.831,-45.365Z" style="fill-rule:nonzero;"/></g></g></g><defs><radialGradient id="_Radial1" cx="0" cy="0" r="1" gradientUnits="userSpaceOnUse" gradientTransform="matrix(238.904,0,0,238.904,244.829,244.829)"><stop offset="0" style="stop-color:#600;stop-opacity:1"/><stop offset="0.6" style="stop-color:#c30000;stop-opacity:1"/><stop offset="1" style="stop-color:#a00000;stop-opacity:1"/></radialGradient></defs></svg>