<?xml version="1.0" encoding="UTF-8" standalone="no"?>
<!DOCTYPE svg PUBLIC "-//W3C//DTD SVG 1.1//EN" "http://www.w3.org/Graphics/SVG/1.1/DTD/svg11.dtd">
<svg width="100%" height="100%" viewBox="0 0 512 512" version="1.1" xmlns="http://www.w3.org/2000/svg" xmlns:xlink="http://www.w3.org/1999/xlink" xml:space="preserve" xmlns:serif="http://www.serif.com/" style="fill-rule:evenodd;clip-rule:evenodd;stroke-linejoin:round;stroke-miterlimit:1.41421;">
    <g>
        <path d="M256,0C161.896,0 85.333,76.563 85.333,170.667C85.333,234.917 114.312,270.761 133.489,294.48C141.989,304.99 149.333,314.074 149.333,320.001L149.333,341.334C149.333,357.059 157.975,370.667 170.666,378.067L170.666,445.417C170.666,456.646 175.218,467.646 183.166,475.584L203.958,496.376C214.031,506.448 227.427,512 241.677,512L270.323,512C284.573,512 297.969,506.448 308.042,496.375L328.834,475.583C336.782,467.645 341.334,456.645 341.334,445.416L341.334,378.066C354.025,370.666 362.667,357.058 362.667,341.333L362.667,320C362.667,314.073 370.011,304.99 378.511,294.479C397.688,270.76 426.667,234.916 426.667,170.666C426.667,76.563 350.104,0 256,0ZM292.958,481.292C286.906,487.334 278.875,490.667 270.323,490.667L241.677,490.667C233.125,490.667 225.094,487.334 219.042,481.292L207.084,469.334L304.917,469.334L292.958,481.292ZM320,445.417C320,446.306 319.594,447.123 319.482,448L192.518,448C192.406,447.122 192,446.306 192,445.417L192,426.667L320,426.667L320,445.417ZM320,405.333L192,405.333L192,384L320,384L320,405.333ZM361.917,281.073C350.417,295.292 341.334,306.531 341.334,320L341.334,341.333C341.334,353.093 331.761,362.666 320.001,362.666L192,362.666C180.24,362.666 170.667,353.093 170.667,341.333L170.667,320C170.667,306.531 161.584,295.292 150.084,281.073C131.761,258.406 106.667,227.365 106.667,170.667C106.667,88.323 173.657,21.334 256,21.334C338.343,21.334 405.333,88.324 405.333,170.667C405.333,227.365 380.24,258.406 361.917,281.073Z" style="fill:white;fill-rule:nonzero;"/>
    </g>
</svg>
