<?xml version="1.0" encoding="UTF-8" standalone="no"?>
<!DOCTYPE svg PUBLIC "-//W3C//DTD SVG 1.1//EN" "http://www.w3.org/Graphics/SVG/1.1/DTD/svg11.dtd">
<svg width="100%" height="100%" viewBox="0 0 470 470" version="1.1" xmlns="http://www.w3.org/2000/svg" xmlns:xlink="http://www.w3.org/1999/xlink" xml:space="preserve" xmlns:serif="http://www.serif.com/" style="fill-rule:evenodd;clip-rule:evenodd;stroke-linejoin:round;stroke-miterlimit:1.41421;">
    <path d="M366.175,19.236C364.06,16.663 360.862,15.309 357.508,15.382C354.175,15.517 351.102,17.215 349.195,19.955L307.851,79.434L274.205,45.788C271.955,43.538 268.913,42.444 265.611,42.715C262.434,43.028 259.559,44.757 257.788,47.413L226.371,94.538L191.238,6.705C189.769,3.028 186.373,0.465 182.436,0.059C178.426,-0.358 174.655,1.455 172.457,4.747L140.978,51.966L126.509,16.247C125.134,12.862 122.113,10.403 118.509,9.757C114.926,9.09 111.217,10.361 108.749,13.059C79.895,44.663 63.999,85.476 63.999,127.997C63.999,192.247 92.978,228.091 112.155,251.81C120.655,262.32 127.999,271.404 127.999,277.331L127.999,298.664C127.999,314.389 136.641,327.997 149.332,335.397L149.332,402.747C149.332,413.976 153.884,424.976 161.832,432.914L182.624,453.706C192.697,463.779 206.093,469.331 220.343,469.331L248.989,469.331C263.239,469.331 276.635,463.779 286.708,453.706L307.5,432.914C315.448,424.976 320,413.976 320,402.747L320,335.397C332.691,327.997 341.333,314.389 341.333,298.664L341.333,277.33C341.333,271.403 348.677,262.32 357.177,251.809C376.354,228.09 405.333,192.246 405.333,127.996C405.332,88.361 391.425,49.726 366.175,19.236ZM271.623,438.622C265.571,444.664 257.54,447.997 248.988,447.997L220.342,447.997C211.79,447.997 203.759,444.664 197.707,438.622L185.749,426.664L283.582,426.664L271.623,438.622ZM298.665,402.747C298.665,403.636 298.259,404.453 298.147,405.33L171.183,405.33C171.071,404.452 170.665,403.636 170.665,402.747L170.665,383.997L298.665,383.997L298.665,402.747ZM298.665,362.663L170.665,362.663L170.665,341.33L298.665,341.33L298.665,362.663ZM340.582,238.403C329.082,252.622 319.999,263.861 319.999,277.33L319.999,298.663C319.999,310.423 310.426,319.996 298.666,319.996L170.666,319.996C158.906,319.996 149.333,310.423 149.333,298.663L149.333,277.33C149.333,263.861 140.25,252.622 128.75,238.403C110.427,215.736 85.333,184.695 85.333,127.997C85.333,96.622 95.239,66.299 113.51,40.976L128.781,78.663C130.26,82.33 133.656,84.871 137.583,85.278C141.5,85.601 145.343,83.872 147.541,80.58L178.958,33.455L214.093,121.288C215.562,124.965 218.958,127.528 222.895,127.934C226.978,128.434 230.687,126.538 232.874,123.246L268.322,70.069L301.791,103.538C304.02,105.778 307.145,106.955 310.281,106.621C313.427,106.34 316.291,104.673 318.094,102.079L358.292,44.246C374.948,68.84 384,98.09 384,127.996C383.998,184.694 358.905,215.736 340.582,238.403Z" style="fill:white;fill-rule:nonzero;"/>
</svg>
