<?xml version="1.0" encoding="iso-8859-1"?>
<!-- Generator: Adobe Illustrator 19.0.0, SVG Export Plug-In . SVG Version: 6.00 Build 0)  -->
<svg version="1.1" id="Capa_1" xmlns="http://www.w3.org/2000/svg" xmlns:xlink="http://www.w3.org/1999/xlink" x="0px" y="0px"
	 viewBox="0 0 469.33 469.33" style="enable-background:new 0 0 469.33 469.33;" xml:space="preserve">
<g>
	<g>
		<path d="M366.175,19.236c-2.115-2.573-5.313-3.927-8.667-3.854c-3.333,0.135-6.406,1.833-8.313,4.573l-41.344,59.479
			l-33.646-33.646c-2.25-2.25-5.292-3.344-8.594-3.073c-3.177,0.313-6.052,2.042-7.823,4.698l-31.417,47.125L191.238,6.705
			c-1.469-3.677-4.865-6.24-8.802-6.646c-4.01-0.417-7.781,1.396-9.979,4.688l-31.479,47.219l-14.469-35.719
			c-1.375-3.385-4.396-5.844-8-6.49c-3.583-0.667-7.292,0.604-9.76,3.302c-28.854,31.604-44.75,72.417-44.75,114.938
			c0,64.25,28.979,100.094,48.156,123.813c8.5,10.51,15.844,19.594,15.844,25.521v21.333c0,15.725,8.642,29.333,21.333,36.733v67.35
			c0,11.229,4.552,22.229,12.5,30.167l20.792,20.792c10.073,10.073,23.469,15.625,37.719,15.625h28.646
			c14.25,0,27.646-5.552,37.719-15.625l20.792-20.792c7.948-7.938,12.5-18.938,12.5-30.167v-67.35
			c12.691-7.4,21.333-21.008,21.333-36.733V277.33c0-5.927,7.344-15.01,15.844-25.521c19.177-23.719,48.156-59.563,48.156-123.813
			C405.332,88.361,391.425,49.726,366.175,19.236z M271.623,438.622c-6.052,6.042-14.083,9.375-22.635,9.375h-28.646
			c-8.552,0-16.583-3.333-22.635-9.375l-11.958-11.958h97.833L271.623,438.622z M298.665,402.747c0,0.889-0.406,1.706-0.518,2.583
			H171.183c-0.112-0.878-0.518-1.694-0.518-2.583v-18.75h128V402.747z M298.665,362.663h-128V341.33h128V362.663z M340.582,238.403
			c-11.5,14.219-20.583,25.458-20.583,38.927v21.333c0,11.76-9.573,21.333-21.333,21.333h-128c-11.76,0-21.333-9.573-21.333-21.333
			V277.33c0-13.469-9.083-24.708-20.583-38.927c-18.323-22.667-43.417-53.708-43.417-110.406c0-31.375,9.906-61.698,28.177-87.021
			l15.271,37.687c1.479,3.667,4.875,6.208,8.802,6.615c3.917,0.323,7.76-1.406,9.958-4.698l31.417-47.125l35.135,87.833
			c1.469,3.677,4.865,6.24,8.802,6.646c4.083,0.5,7.792-1.396,9.979-4.688l35.448-53.177l33.469,33.469
			c2.229,2.24,5.354,3.417,8.49,3.083c3.146-0.281,6.01-1.948,7.813-4.542l40.198-57.833c16.656,24.594,25.708,53.844,25.708,83.75
			C383.998,184.694,358.905,215.736,340.582,238.403z"/>
	</g>
</g>
<g>
</g>
<g>
</g>
<g>
</g>
<g>
</g>
<g>
</g>
<g>
</g>
<g>
</g>
<g>
</g>
<g>
</g>
<g>
</g>
<g>
</g>
<g>
</g>
<g>
</g>
<g>
</g>
<g>
</g>
</svg>
