<?xml version="1.0" encoding="UTF-8" standalone="no"?>
<!DOCTYPE svg PUBLIC "-//W3C//DTD SVG 1.1//EN" "http://www.w3.org/Graphics/SVG/1.1/DTD/svg11.dtd">
<svg width="100%" height="100%" viewBox="0 0 512 512" version="1.1" xmlns="http://www.w3.org/2000/svg" xmlns:xlink="http://www.w3.org/1999/xlink" xml:space="preserve" xmlns:serif="http://www.serif.com/" style="fill-rule:evenodd;clip-rule:evenodd;stroke-linecap:round;stroke-linejoin:round;stroke-miterlimit:1.5;">
    <path d="M256,0C161.896,0 85.333,76.563 85.333,170.667C85.333,234.917 114.312,270.761 133.489,294.48C141.989,304.99 149.333,314.074 149.333,320.001L149.333,341.334C149.333,357.059 157.975,370.667 170.666,378.067L170.666,445.417C170.666,456.646 175.218,467.646 183.166,475.584L203.957,496.375C214.031,506.448 227.427,512 241.677,512L270.323,512C284.573,512 297.969,506.448 308.042,496.375L316.862,487.555L316.888,487.529L328.833,475.584C336.781,467.646 341.333,456.646 341.333,445.417L341.333,378.067C354.024,370.667 362.666,357.059 362.666,341.334L362.666,320C362.666,314.073 370.01,304.99 378.51,294.479C397.687,270.76 426.666,234.916 426.666,170.666C426.667,76.563 350.104,0 256,0ZM256,192C238.354,192 224,177.646 224,160C224,146.112 232.944,134.383 245.333,129.965L245.333,128C245.333,122.104 250.104,117.333 256,117.333C261.896,117.333 266.667,122.104 266.667,128L277.334,128C283.23,128 288.001,132.771 288.001,138.667C288.001,144.563 283.23,149.334 277.334,149.334L256,149.334C250.115,149.334 245.333,154.115 245.333,160.001C245.333,165.887 250.114,170.668 256,170.668C273.646,170.668 288,185.022 288,202.668C288,216.556 279.056,228.285 266.667,232.703L266.667,234.668C266.667,240.564 261.896,245.335 256,245.335C250.104,245.335 245.333,240.564 245.333,234.668L234.666,234.668C228.77,234.668 223.999,229.897 223.999,224.001C223.999,218.105 228.77,213.334 234.666,213.334L256,213.334C261.885,213.334 266.667,208.553 266.667,202.667C266.667,196.781 261.885,192 256,192ZM313.75,460.5L304.917,469.333L207.084,469.333L198.251,460.5C194.911,457.16 193.114,452.665 192.519,448L319.483,448C318.887,452.665 317.09,457.16 313.75,460.5ZM320,405.333L192,405.333L192,384L320,384L320,405.333Z" style="fill:white;fill-rule:nonzero;"/>
    <rect x="196.201" y="104.772" width="125.529" height="151.228" style="fill:white;stroke:white;stroke-width:1px;"/>
</svg>
